<svg id="visual" viewBox="0 0 675 900" width="675" height="900" xmlns="http://www.w3.org/2000/svg" xmlns:xlink="http://www.w3.org/1999/xlink" version="1.1">
    <rect width="675" height="900" fill="#fff"></rect>
    <g>
        <g transform="translate(98 197)">
            <path d="M92.5 -89.6C136.8 -73.1 201.3 -60 222.5 -26.4C243.7 7.2 221.6 61.2 192.4 110.4C163.2 159.6 126.8 204 79.9 222.2C33 240.5 -24.4 232.6 -74.3 211.4C-124.2 190.1 -166.6 155.4 -195.1 110.5C-223.7 65.5 -238.4 10.5 -232.4 -43.9C-226.3 -98.3 -199.4 -152 -157.2 -168.8C-115 -185.7 -57.5 -165.8 -16.7 -145.9C24.1 -126 48.3 -106.1 92.5 -89.6Z" fill="#fee08d"></path>
        </g>
        <g transform="translate(366 891)">
            <path d="M77.9 -109.6C91.4 -81.4 86.4 -47.9 105.6 -8.4C124.8 31.2 168.2 76.7 159.6 92.7C151 108.7 90.3 95.1 44.2 104.6C-1.9 114.1 -33.5 146.5 -65.2 148.3C-96.8 150.2 -128.4 121.3 -143.5 86.9C-158.5 52.5 -156.9 12.6 -144.5 -19.9C-132.2 -52.4 -109.1 -77.4 -83.2 -103.5C-57.3 -129.5 -28.7 -156.6 1.7 -158.7C32.2 -160.7 64.3 -137.8 77.9 -109.6Z" fill="#fc8573"></path>
        </g>
        <g transform="translate(646 -110)">
            <path d="M77.9 -109.6C91.4 -81.4 86.4 -47.9 105.6 -8.4C124.8 31.2 168.2 76.7 159.6 92.7C151 108.7 90.3 95.1 44.2 104.6C-1.9 114.1 -33.5 146.5 -65.2 148.3C-96.8 150.2 -128.4 121.3 -143.5 86.9C-158.5 52.5 -156.9 12.6 -144.5 -19.9C-132.2 -52.4 -109.1 -77.4 -83.2 -103.5C-57.3 -129.5 -28.7 -156.6 1.7 -158.7C32.2 -160.7 64.3 -137.8 77.9 -109.6Z" fill="#c75b9c"></path>
        </g>
    </g>
</svg>