<svg xmlns="http://www.w3.org/2000/svg" xmlns:xlink="http://www.w3.org/1999/xlink" id="visual" viewBox="0 0 900 600" width="900" height="600" version="1.1"><rect x="0" y="0" width="900" height="600" fill="#fedf8d"/><path d="M246 600L281 550C316 500 386 400 397.2 300C408.3 200 360.7 100 336.8 50L313 0L900 0L900 50C900 100 900 200 900 300C900 400 900 500 900 550L900 600Z" fill="#fc8371"/><path d="M466 600L497.8 550C529.7 500 593.3 400 605.2 300C617 200 577 100 557 50L537 0L900 0L900 50C900 100 900 200 900 300C900 400 900 500 900 550L900 600Z" fill="#bb55a8"/></svg>