<!--<svg xmlns="http://www.w3.org/2000/svg" width="307" height="360" viewBox="0 0 307 360" fill="none">-->
<!--&lt;!&ndash;<path d="M120.27 274.561H143.667V276.425H122.415V290.451H142.399V292.315H122.415V307.714H143.91V309.578H120.27V274.561ZM145.762 274.561H148.249L159.264 289.96L170.524 274.561L185.839 255L160.678 291.579L173.644 309.578H171.06L159.264 293.198L147.42 309.578H144.885L157.948 291.579L145.763 274.561H145.762ZM174.57 276.425V274.561H201.232V276.425H188.949V309.577H186.804V276.425H174.571H174.57ZM91 274.561H93.6811L130.648 330L115.371 309.578L93.2418 277.209L93.1444 309.578H91V274.561ZM201.017 307.152C200.577 307.152 200.249 306.812 200.249 306.372C200.249 305.932 200.577 305.592 201.016 305.592C201.459 305.592 201.783 305.932 201.783 306.372C201.783 306.812 201.459 307.152 201.016 307.152H201.017ZM203.123 305.1H204.272C204.288 305.723 204.742 306.141 205.409 306.141C206.155 306.141 206.577 305.692 206.577 304.849V299.51H207.746V304.854C207.746 306.372 206.87 307.247 205.419 307.247C204.058 307.247 203.124 306.398 203.124 305.1H203.123ZM209.274 305.032H210.432C210.531 305.749 211.23 306.204 212.237 306.204C213.175 306.204 213.864 305.717 213.864 305.048C213.864 304.472 213.426 304.126 212.429 303.891L211.459 303.656C210.098 303.337 209.477 302.677 209.477 301.567C209.477 300.221 210.572 299.326 212.215 299.326C213.744 299.326 214.861 300.221 214.928 301.493H213.791C213.682 300.797 213.077 300.362 212.2 300.362C211.276 300.362 210.661 300.808 210.661 301.488C210.661 302.027 211.058 302.336 212.039 302.566L212.868 302.77C214.411 303.132 215.048 303.76 215.048 304.896C215.048 306.34 213.931 307.247 212.148 307.247C210.479 307.247 209.357 306.382 209.274 305.032V305.032Z" fill="white"/>&ndash;&gt;-->
<!--</svg>-->


<svg xmlns="http://www.w3.org/2000/svg" viewBox="665.06 150.011 124.048 75" width="124.048" height="75">
<path d="M 694.33 169.572 L 717.727 169.572 L 717.727 171.436 L 696.475 171.436 L 696.475 185.462 L 716.459 185.462 L 716.459 187.326 L 696.475 187.326 L 696.475 202.725 L 717.97 202.725 L 717.97 204.589 L 694.33 204.589 L 694.33 169.572 Z M 719.822 169.572 L 722.309 169.572 L 733.324 184.971 L 744.584 169.572 L 759.899 150.011 L 734.738 186.59 L 747.704 204.589 L 745.12 204.589 L 733.324 188.209 L 721.48 204.589 L 718.945 204.589 L 732.008 186.59 L 719.823 169.572 L 719.822 169.572 Z M 748.63 171.436 L 748.63 169.572 L 775.292 169.572 L 775.292 171.436 L 763.009 171.436 L 763.009 204.588 L 760.864 204.588 L 760.864 171.436 L 748.631 171.436 L 748.63 171.436 Z M 665.06 169.572 L 667.741 169.572 L 704.708 225.011 L 689.431 204.589 L 667.302 172.22 L 667.205 204.589 L 665.06 204.589 L 665.06 169.572 Z M 775.077 202.163 C 774.637 202.163 774.309 201.823 774.309 201.383 C 774.309 200.943 774.637 200.603 775.076 200.603 C 775.519 200.603 775.843 200.943 775.843 201.383 C 775.843 201.823 775.519 202.163 775.076 202.163 L 775.077 202.163 Z M 777.183 200.111 L 778.332 200.111 C 778.348 200.734 778.802 201.152 779.469 201.152 C 780.215 201.152 780.637 200.703 780.637 199.86 L 780.637 194.521 L 781.806 194.521 L 781.806 199.865 C 781.806 201.383 780.93 202.258 779.479 202.258 C 778.118 202.258 777.184 201.409 777.184 200.111 L 777.183 200.111 Z M 783.334 200.043 L 784.492 200.043 C 784.591 200.76 785.29 201.215 786.297 201.215 C 787.235 201.215 787.924 200.728 787.924 200.059 C 787.924 199.483 787.486 199.137 786.489 198.902 L 785.519 198.667 C 784.158 198.348 783.537 197.688 783.537 196.578 C 783.537 195.232 784.632 194.337 786.275 194.337 C 787.804 194.337 788.921 195.232 788.988 196.504 L 787.851 196.504 C 787.742 195.808 787.137 195.373 786.26 195.373 C 785.336 195.373 784.721 195.819 784.721 196.499 C 784.721 197.038 785.118 197.347 786.099 197.577 L 786.928 197.781 C 788.471 198.143 789.108 198.771 789.108 199.907 C 789.108 201.351 787.991 202.258 786.208 202.258 C 784.539 202.258 783.417 201.393 783.334 200.043 Z" fill="white"></path>
</svg>