<svg xmlns="http://www.w3.org/2000/svg" viewBox="506.416 159.385 200.03 55.359" width="200.03" height="55.359">
<path fill-rule="evenodd" clip-rule="evenodd" d="M 555.515 176.63 C 563.422 179.05 568.579 182.953 568.579 187.071 C 568.579 191.176 563.447 195.079 555.591 197.499 C 557.429 205.532 556.63 211.931 553.07 213.983 C 552.234 214.465 551.271 214.693 550.206 214.693 C 546.722 214.693 542.16 212.235 537.548 207.952 C 532.936 212.26 528.374 214.744 524.89 214.744 C 523.826 214.744 522.863 214.516 522.039 214.034 C 518.466 211.981 517.655 205.57 519.48 197.511 C 511.573 195.091 506.416 191.189 506.416 187.071 C 506.416 182.965 511.547 179.075 519.429 176.643 C 517.592 168.609 518.39 162.211 521.95 160.158 C 522.787 159.676 523.75 159.448 524.814 159.448 L 524.814 159.436 C 528.298 159.436 532.86 161.894 537.472 166.177 C 542.084 161.868 546.646 159.385 550.13 159.385 L 550.13 159.398 C 551.177 159.4 552.136 159.628 552.956 160.107 C 556.529 162.16 557.34 168.571 555.515 176.63 Z M 550.118 162.211 C 547.482 162.217 543.611 164.32 539.487 168.153 C 541.273 170.016 543.047 172.144 544.758 174.489 C 547.609 174.793 550.32 175.262 552.804 175.87 C 553.083 174.59 553.311 173.336 553.45 172.144 C 554.033 167.304 553.285 163.541 551.562 162.553 C 551.169 162.337 550.7 162.223 550.118 162.223 L 550.118 162.211 Z M 535.457 168.166 C 531.327 164.352 527.437 162.261 524.814 162.261 L 524.814 162.274 C 524.231 162.274 523.737 162.375 523.357 162.603 C 521.646 163.604 520.911 167.368 521.507 172.208 C 521.659 173.386 521.874 174.615 522.166 175.882 C 524.649 175.262 527.361 174.793 530.224 174.489 C 531.91 172.144 533.684 170.028 535.457 168.166 Z M 550.371 183.624 C 551.03 181.939 551.613 180.254 552.082 178.619 C 550.422 178.214 548.686 177.884 546.887 177.618 C 547.507 178.581 548.128 179.57 548.711 180.583 C 549.307 181.597 549.851 182.611 550.371 183.624 Z M 546.278 192.114 C 545.29 193.824 544.276 195.446 543.225 196.954 C 541.337 197.119 539.423 197.207 537.497 197.207 C 535.584 197.207 533.671 197.119 531.796 196.967 C 530.744 195.459 529.718 193.85 528.729 192.152 C 527.766 190.492 526.892 188.807 526.094 187.109 C 526.879 185.411 527.766 183.713 528.717 182.053 C 529.705 180.343 530.719 178.721 531.77 177.213 C 533.658 177.048 535.572 176.959 537.497 176.959 C 539.411 176.959 541.324 177.048 543.199 177.2 C 544.251 178.708 545.277 180.317 546.266 182.015 C 547.229 183.675 548.103 185.36 548.901 187.058 C 548.103 188.756 547.229 190.454 546.278 192.114 Z M 552.12 195.509 C 551.638 193.862 551.055 192.164 550.371 190.466 C 549.851 191.48 549.307 192.506 548.724 193.52 C 548.141 194.546 547.52 195.547 546.899 196.523 C 548.711 196.257 550.46 195.915 552.12 195.509 Z M 537.523 203.986 C 536.344 202.77 535.166 201.414 534 199.932 C 535.141 199.982 536.306 200.02 537.485 200.02 C 538.676 200.02 539.854 199.995 541.007 199.932 C 539.867 201.414 538.689 202.77 537.523 203.986 Z M 522.901 195.522 C 524.561 195.928 526.296 196.257 528.096 196.523 C 527.475 195.56 526.867 194.572 526.271 193.558 C 525.676 192.545 525.131 191.531 524.611 190.517 C 523.952 192.202 523.37 193.888 522.901 195.522 Z M 537.459 170.155 C 538.638 171.372 539.816 172.727 540.982 174.21 C 539.842 174.159 538.676 174.121 537.497 174.121 C 536.306 174.121 535.128 174.146 533.975 174.21 C 535.115 172.727 536.294 171.372 537.459 170.155 Z M 526.258 180.621 C 526.841 179.595 527.462 178.594 528.083 177.618 C 526.271 177.884 524.523 178.226 522.863 178.619 C 523.344 180.266 523.927 181.964 524.611 183.662 C 525.131 182.649 525.676 181.635 526.258 180.621 Z M 516.616 193.482 C 512.13 191.569 509.228 189.06 509.228 187.071 C 509.228 185.081 512.13 182.56 516.616 180.659 C 517.706 180.19 518.897 179.772 520.126 179.38 C 520.848 181.863 521.798 184.448 522.977 187.096 C 521.811 189.732 520.873 192.304 520.164 194.775 C 518.909 194.382 517.718 193.951 516.616 193.482 Z M 521.545 201.997 C 520.962 206.837 521.71 210.6 523.433 211.589 C 523.813 211.804 524.294 211.918 524.865 211.931 C 527.5 211.931 531.377 209.827 535.508 205.988 C 533.722 204.126 531.948 201.997 530.237 199.653 C 527.386 199.349 524.675 198.88 522.191 198.272 C 521.912 199.551 521.684 200.806 521.545 201.997 Z M 553.488 201.933 C 554.084 206.774 553.349 210.537 551.638 211.538 C 551.258 211.766 550.764 211.867 550.181 211.867 C 547.558 211.867 543.668 209.777 539.537 205.963 C 541.311 204.1 543.085 201.984 544.771 199.64 C 547.634 199.336 550.346 198.867 552.829 198.246 C 553.121 199.526 553.349 200.755 553.488 201.933 Z M 554.856 194.762 C 556.086 194.369 557.277 193.951 558.366 193.482 C 562.852 191.581 565.753 189.06 565.766 187.071 C 565.766 185.081 562.864 182.572 558.379 180.659 C 557.264 180.19 556.073 179.76 554.818 179.367 C 554.109 181.838 553.171 184.41 552.006 187.045 C 553.184 189.693 554.134 192.278 554.856 194.762 Z" fill="white"></path>
<circle cx="537.485" cy="187.071" r="5.791" fill="white"></circle>
<path d="M 589.579 204.179 L 589.579 172.266 L 601.546 172.266 C 603.998 172.266 606.055 172.692 607.717 173.544 C 609.389 174.396 610.651 175.591 611.503 177.128 C 612.365 178.655 612.797 180.437 612.797 182.473 C 612.797 184.519 612.36 186.296 611.488 187.802 C 610.625 189.298 609.353 190.456 607.67 191.277 C 605.987 192.087 603.92 192.492 601.468 192.492 L 592.945 192.492 L 592.945 187.693 L 600.689 187.693 C 602.123 187.693 603.297 187.495 604.211 187.101 C 605.125 186.696 605.8 186.109 606.236 185.34 C 606.683 184.561 606.906 183.605 606.906 182.473 C 606.906 181.34 606.683 180.374 606.236 179.574 C 605.79 178.764 605.109 178.151 604.195 177.736 C 603.281 177.31 602.102 177.097 600.658 177.097 L 595.36 177.097 L 595.36 204.179 L 589.579 204.179 Z M 606.065 189.719 L 613.965 204.179 L 607.514 204.179 L 599.754 189.719 L 606.065 189.719 Z" fill="white"></path>
<path d="M 628.122 204.646 C 625.722 204.646 623.65 204.148 621.904 203.15 C 620.17 202.143 618.835 200.72 617.9 198.881 C 616.965 197.032 616.497 194.855 616.497 192.352 C 616.497 189.89 616.965 187.729 617.9 185.87 C 618.845 184 620.164 182.545 621.858 181.507 C 623.551 180.457 625.54 179.933 627.826 179.933 C 629.301 179.933 630.693 180.172 632.002 180.65 C 633.321 181.117 634.484 181.844 635.492 182.831 C 636.51 183.818 637.31 185.075 637.892 186.602 C 638.474 188.119 638.764 189.926 638.764 192.025 L 638.764 193.754 L 619.146 193.754 L 619.146 189.952 L 633.357 189.952 C 633.347 188.872 633.113 187.911 632.656 187.07 C 632.199 186.218 631.56 185.548 630.74 185.059 C 629.929 184.571 628.984 184.327 627.904 184.327 C 626.75 184.327 625.738 184.608 624.865 185.168 C 623.992 185.719 623.312 186.446 622.824 187.35 C 622.346 188.243 622.102 189.225 622.091 190.295 L 622.091 193.614 C 622.091 195.006 622.346 196.201 622.855 197.198 C 623.364 198.185 624.076 198.943 624.99 199.473 C 625.904 199.992 626.974 200.252 628.2 200.252 C 629.02 200.252 629.763 200.138 630.428 199.909 C 631.093 199.67 631.669 199.322 632.158 198.865 C 632.646 198.408 633.015 197.842 633.264 197.167 L 638.531 197.759 C 638.198 199.151 637.565 200.366 636.63 201.405 C 635.705 202.434 634.521 203.234 633.077 203.805 C 631.633 204.366 629.981 204.646 628.122 204.646 Z" fill="white"></path>
<path d="M 650.424 204.662 C 648.907 204.662 647.541 204.392 646.326 203.852 C 645.121 203.301 644.165 202.491 643.459 201.421 C 642.763 200.351 642.415 199.032 642.415 197.463 C 642.415 196.112 642.664 194.996 643.163 194.113 C 643.661 193.23 644.342 192.523 645.204 191.994 C 646.066 191.464 647.037 191.064 648.118 190.794 C 649.208 190.513 650.336 190.311 651.499 190.186 C 652.901 190.041 654.039 189.911 654.912 189.796 C 655.784 189.672 656.418 189.485 656.813 189.235 C 657.218 188.976 657.42 188.576 657.42 188.036 L 657.42 187.942 C 657.42 186.768 657.072 185.859 656.376 185.215 C 655.68 184.571 654.678 184.249 653.369 184.249 C 651.987 184.249 650.891 184.55 650.081 185.153 C 649.281 185.755 648.741 186.467 648.46 187.288 L 643.194 186.54 C 643.609 185.085 644.295 183.87 645.251 182.893 C 646.206 181.907 647.375 181.169 648.757 180.681 C 650.138 180.182 651.665 179.933 653.338 179.933 C 654.491 179.933 655.639 180.068 656.781 180.338 C 657.924 180.608 658.968 181.055 659.913 181.678 C 660.859 182.291 661.617 183.127 662.188 184.187 C 662.77 185.246 663.061 186.571 663.061 188.16 L 663.061 204.179 L 657.638 204.179 L 657.638 200.891 L 657.451 200.891 C 657.109 201.556 656.626 202.179 656.002 202.761 C 655.389 203.332 654.615 203.795 653.681 204.148 C 652.756 204.491 651.67 204.662 650.424 204.662 Z M 651.889 200.517 C 653.021 200.517 654.003 200.294 654.834 199.847 C 655.665 199.39 656.304 198.787 656.75 198.039 C 657.207 197.292 657.436 196.476 657.436 195.593 L 657.436 192.773 C 657.259 192.918 656.958 193.053 656.532 193.178 C 656.117 193.302 655.649 193.412 655.13 193.505 C 654.61 193.598 654.096 193.682 653.587 193.754 C 653.078 193.827 652.637 193.889 652.263 193.941 C 651.421 194.056 650.668 194.243 650.003 194.502 C 649.338 194.762 648.814 195.126 648.429 195.593 C 648.045 196.05 647.853 196.642 647.853 197.369 C 647.853 198.408 648.232 199.193 648.99 199.722 C 649.749 200.252 650.715 200.517 651.889 200.517 Z" fill="white"></path>
<path d="M 679.173 204.646 C 676.784 204.646 674.732 204.122 673.018 203.073 C 671.315 202.023 670 200.574 669.076 198.725 C 668.162 196.866 667.705 194.726 667.705 192.305 C 667.705 189.874 668.172 187.729 669.107 185.87 C 670.042 184 671.361 182.545 673.065 181.507 C 674.779 180.457 676.805 179.933 679.142 179.933 C 681.085 179.933 682.804 180.291 684.3 181.008 C 685.806 181.714 687.006 182.717 687.899 184.015 C 688.793 185.304 689.302 186.81 689.426 188.534 L 684.035 188.534 C 683.817 187.381 683.297 186.42 682.477 185.652 C 681.666 184.872 680.581 184.483 679.22 184.483 C 678.067 184.483 677.054 184.795 676.181 185.418 C 675.309 186.031 674.628 186.914 674.14 188.067 C 673.662 189.22 673.423 190.602 673.423 192.212 C 673.423 193.843 673.662 195.245 674.14 196.419 C 674.618 197.582 675.288 198.481 676.15 199.115 C 677.023 199.738 678.046 200.05 679.22 200.05 C 680.051 200.05 680.794 199.894 681.448 199.582 C 682.113 199.26 682.669 198.798 683.115 198.195 C 683.562 197.593 683.869 196.86 684.035 195.998 L 689.426 195.998 C 689.291 197.691 688.793 199.193 687.93 200.501 C 687.068 201.8 685.894 202.818 684.409 203.556 C 682.923 204.283 681.178 204.646 679.173 204.646 Z" fill="white"></path>
<path d="M 706.01 180.244 L 706.01 184.608 L 692.251 184.608 L 692.251 180.244 L 706.01 180.244 Z M 695.648 174.51 L 701.288 174.51 L 701.288 196.98 C 701.288 197.738 701.403 198.32 701.631 198.725 C 701.87 199.12 702.182 199.39 702.566 199.535 C 702.95 199.681 703.376 199.754 703.844 199.754 C 704.197 199.754 704.519 199.728 704.81 199.676 C 705.111 199.624 705.34 199.577 705.496 199.535 L 706.446 203.945 C 706.145 204.049 705.714 204.163 705.153 204.288 C 704.602 204.413 703.927 204.485 703.127 204.506 C 701.714 204.548 700.442 204.335 699.309 203.867 C 698.177 203.389 697.278 202.652 696.614 201.655 C 695.959 200.657 695.637 199.411 695.648 197.915 L 695.648 174.51 Z" fill="white"></path>
</svg>