<svg id="visual" viewBox="0 0 675 900" width="675" height="900" xmlns="http://www.w3.org/2000/svg" xmlns:xlink="http://www.w3.org/1999/xlink" version="1.1"><path d="M0 388L56.3 362.5C112.7 337 225.3 286 337.8 232C450.3 178 562.7 121 618.8 92.5L675 64L675 0L618.8 0C562.7 0 450.3 0 337.8 0C225.3 0 112.7 0 56.3 0L0 0Z" fill="#fee08d"></path><path d="M0 451L56.3 427C112.7 403 225.3 355 337.8 310C450.3 265 562.7 223 618.8 202L675 181L675 62L618.8 90.5C562.7 119 450.3 176 337.8 230C225.3 284 112.7 335 56.3 360.5L0 386Z" fill="#ffbe74"></path><path d="M0 892L56.3 872.5C112.7 853 225.3 814 337.8 808C450.3 802 562.7 829 618.8 842.5L675 856L675 179L618.8 200C562.7 221 450.3 263 337.8 308C225.3 353 112.7 401 56.3 425L0 449Z" fill="#ff9a69"></path><path d="M0 901L56.3 901C112.7 901 225.3 901 337.8 901C450.3 901 562.7 901 618.8 901L675 901L675 854L618.8 840.5C562.7 827 450.3 800 337.8 806C225.3 812 112.7 851 56.3 870.5L0 890Z" fill="#fc756c"></path></svg>