<svg id="visual" viewBox="0 0 675 900" width="675" height="900" xmlns="http://www.w3.org/2000/svg" xmlns:xlink="http://www.w3.org/1999/xlink" version="1.1"><path d="M0 307L37.5 322C75 337 150 367 225 380.5C300 394 375 391 450 379C525 367 600 346 637.5 335.5L675 325L675 0L637.5 0C600 0 525 0 450 0C375 0 300 0 225 0C150 0 75 0 37.5 0L0 0Z" fill="#fee08d"></path><path d="M0 703L37.5 697C75 691 150 679 225 682C300 685 375 703 450 701.5C525 700 600 679 637.5 668.5L675 658L675 323L637.5 333.5C600 344 525 365 450 377C375 389 300 392 225 378.5C150 365 75 335 37.5 320L0 305Z" fill="#ffac6d"></path><path d="M0 901L37.5 901C75 901 150 901 225 901C300 901 375 901 450 901C525 901 600 901 637.5 901L675 901L675 656L637.5 666.5C600 677 525 698 450 699.5C375 701 300 683 225 680C150 677 75 689 37.5 695L0 701Z" fill="#fc756c"></path></svg>