<svg xmlns="http://www.w3.org/2000/svg" viewBox="510.5464 146.2639 219.9996 53.7368" width="219.9996" height="53.7368">
<path d="M 530.497 148.623 C 534.082 146.465 538.355 145.753 542.448 146.63 C 546.54 147.508 550.145 149.911 552.528 153.349 C 553.717 155.014 554.561 156.899 555.01 158.894 C 555.46 160.89 555.507 162.954 555.147 164.968 C 554.79 166.886 554.058 168.716 552.992 170.351 C 554.555 173.336 555.082 176.755 554.488 180.071 C 554.129 182.037 553.364 183.906 552.243 185.561 C 551.123 187.217 549.67 188.621 547.978 189.686 L 535.436 197.641 C 531.85 199.8 527.577 200.512 523.484 199.634 C 519.392 198.757 515.788 196.354 513.405 192.916 C 512.216 191.257 511.372 189.377 510.922 187.386 C 510.472 185.396 510.426 183.336 510.786 181.327 C 511.13 179.407 511.858 177.577 512.926 175.944 C 511.362 172.959 510.836 169.54 511.429 166.224 C 511.784 164.258 512.544 162.388 513.663 160.732 C 514.781 159.077 516.233 157.672 517.925 156.609 L 530.497 148.623 Z M 523.298 193.38 C 525.216 194.086 527.305 194.19 529.284 193.679 C 530.186 193.439 531.044 193.061 531.829 192.557 L 544.386 184.572 C 545.404 183.928 546.276 183.08 546.949 182.081 C 547.621 181.082 548.079 179.955 548.292 178.77 C 548.517 177.567 548.5 176.332 548.243 175.136 C 547.986 173.94 547.494 172.806 546.795 171.802 C 545.631 170.128 543.981 168.85 542.067 168.142 C 540.154 167.433 538.069 167.327 536.094 167.839 C 535.194 168.082 534.336 168.46 533.55 168.96 L 528.73 171.951 C 528.493 172.101 528.236 172.217 527.967 172.295 C 527.375 172.446 526.751 172.413 526.178 172.199 C 525.605 171.985 525.112 171.601 524.764 171.099 C 524.548 170.797 524.394 170.455 524.311 170.093 C 524.229 169.731 524.22 169.356 524.285 168.99 C 524.352 168.633 524.491 168.294 524.694 167.993 C 524.898 167.692 525.161 167.436 525.468 167.241 L 538.01 159.27 C 538.252 159.125 538.514 159.014 538.788 158.941 C 539.376 158.786 539.997 158.812 540.569 159.018 C 541.141 159.224 541.637 159.599 541.991 160.093 C 542.351 160.651 542.5 161.319 542.41 161.977 L 542.41 162.456 L 542.889 162.59 C 544.632 163.105 546.276 163.909 547.753 164.968 L 548.397 165.446 L 548.636 164.729 C 548.761 164.346 548.861 163.957 548.936 163.562 C 549.151 162.354 549.121 161.114 548.849 159.917 C 548.576 158.72 548.066 157.59 547.349 156.594 C 546.187 154.921 544.54 153.644 542.629 152.936 C 540.718 152.227 538.636 152.121 536.663 152.631 C 535.768 152.869 534.915 153.242 534.133 153.738 L 521.561 161.738 C 520.542 162.377 519.668 163.222 518.995 164.218 C 518.323 165.215 517.866 166.341 517.655 167.525 C 517.43 168.727 517.446 169.963 517.703 171.159 C 517.96 172.356 518.452 173.489 519.152 174.493 C 520.314 176.166 521.961 177.443 523.872 178.151 C 525.783 178.86 527.865 178.966 529.838 178.456 C 530.736 178.215 531.594 177.842 532.382 177.349 L 537.187 174.359 C 537.425 174.202 537.688 174.085 537.965 174.015 C 538.559 173.86 539.187 173.892 539.763 174.106 C 540.338 174.32 540.834 174.706 541.183 175.211 C 541.4 175.51 541.554 175.849 541.636 176.209 C 541.719 176.569 541.727 176.941 541.662 177.305 C 541.602 177.664 541.465 178.006 541.261 178.308 C 541.057 178.61 540.79 178.864 540.479 179.054 L 527.952 187.039 C 527.717 187.193 527.46 187.309 527.189 187.383 C 526.595 187.538 525.967 187.506 525.391 187.292 C 524.816 187.078 524.32 186.692 523.971 186.187 C 523.583 185.65 523.398 184.993 523.447 184.333 L 523.447 183.854 L 522.953 183.72 C 521.198 183.194 519.548 182.37 518.074 181.282 L 517.416 180.804 L 517.191 181.521 C 517.064 181.903 516.963 182.292 516.892 182.688 C 516.674 183.895 516.7 185.134 516.97 186.331 C 517.24 187.528 517.748 188.659 518.463 189.656 C 519.645 191.373 521.336 192.675 523.298 193.38 Z" fill="white"></path>
<path d="M 582.5 187.901 C 579.974 187.901 577.788 187.289 575.941 186.065 C 574.094 184.814 572.818 183.114 572.112 180.965 L 576.104 179.497 C 576.702 180.83 577.571 181.89 578.711 182.679 C 579.852 183.441 581.169 183.821 582.663 183.821 C 584.238 183.821 585.487 183.441 586.41 182.679 C 587.361 181.917 587.836 180.83 587.836 179.415 C 587.836 178.817 587.7 178.273 587.429 177.783 C 587.184 177.267 586.899 176.845 586.573 176.519 C 586.247 176.192 585.745 175.866 585.066 175.539 C 584.387 175.186 583.817 174.927 583.355 174.764 C 582.921 174.574 582.269 174.329 581.4 174.03 C 580.313 173.649 579.499 173.35 578.956 173.132 C 578.412 172.915 577.693 172.561 576.797 172.072 C 575.928 171.555 575.262 171.052 574.801 170.562 C 574.366 170.045 573.972 169.379 573.619 168.563 C 573.266 167.747 573.09 166.836 573.09 165.83 C 573.09 163.735 573.904 161.967 575.534 160.526 C 577.163 159.084 579.377 158.364 582.174 158.364 C 584.509 158.364 586.424 158.88 587.918 159.914 C 589.438 160.947 590.457 162.321 590.973 164.034 L 587.062 165.34 C 586.682 164.47 586.044 163.776 585.147 163.259 C 584.278 162.715 583.179 162.443 581.848 162.443 C 580.49 162.443 579.417 162.743 578.63 163.341 C 577.869 163.939 577.489 164.782 577.489 165.87 C 577.489 166.605 577.788 167.257 578.385 167.829 C 578.983 168.4 579.607 168.821 580.259 169.093 C 580.911 169.365 581.902 169.733 583.233 170.195 C 584.048 170.494 584.645 170.725 585.025 170.888 C 585.433 171.024 586.017 171.269 586.777 171.623 C 587.537 171.976 588.121 172.303 588.529 172.602 C 588.936 172.874 589.411 173.255 589.954 173.744 C 590.497 174.234 590.905 174.737 591.176 175.254 C 591.475 175.743 591.72 176.355 591.91 177.09 C 592.127 177.797 592.236 178.558 592.236 179.374 C 592.236 182.04 591.326 184.134 589.506 185.657 C 587.687 187.153 585.351 187.901 582.5 187.901 Z" fill="white"></path>
<path d="M 608.673 187.412 L 598.897 158.853 L 603.459 158.853 L 609.936 178.762 C 610.344 180.014 610.642 181.101 610.832 182.026 C 611.023 181.101 611.321 180.014 611.729 178.762 L 618.124 158.853 L 622.646 158.853 L 612.91 187.412 L 608.673 187.412 Z" fill="white"></path>
<path d="M 631.257 187.189 L 631.257 158.631 L 648.937 158.631 L 648.937 162.629 L 635.494 162.629 L 635.494 170.462 L 644.171 170.462 L 644.171 174.46 L 635.494 174.46 L 635.494 183.191 L 649.833 183.191 L 649.833 187.189 L 631.257 187.189 Z" fill="white"></path>
<path d="M 660.706 187.412 L 660.706 158.853 L 664.942 158.853 L 664.942 183.332 L 678.874 183.332 L 678.874 187.412 L 660.706 187.412 Z" fill="white"></path>
<path d="M 695.186 162.933 L 695.186 187.412 L 690.949 187.412 L 690.949 162.933 L 682.883 162.933 L 682.883 158.853 L 703.251 158.853 L 703.251 162.933 L 695.186 162.933 Z" fill="white"></path>
<path d="M 711.97 187.412 L 711.97 158.853 L 729.65 158.853 L 729.65 162.851 L 716.207 162.851 L 716.207 170.684 L 724.884 170.684 L 724.884 174.683 L 716.207 174.683 L 716.207 183.413 L 730.546 183.413 L 730.546 187.412 L 711.97 187.412 Z" fill="white"></path>
</svg>