<svg xmlns="http://www.w3.org/2000/svg"  viewBox="512.511 165.233 180 65.462" width="180" height="65.462">
<path fill-rule="evenodd" clip-rule="evenodd" d="M 560.368 165.233 L 573.358 165.233 L 589.082 165.233 L 550.797 230.695 L 512.511 165.233 L 542.593 165.233 L 550.797 180.274 L 560.368 165.233 Z M 531.141 170.702 L 521.912 170.702 L 550.797 219.927 L 579.511 170.702 L 570.281 170.702 L 550.797 204.544 L 531.141 170.702 Z M 596.705 178.081 C 596.19 178.39 595.933 178.776 595.933 179.239 L 595.934 179.239 C 595.934 179.301 595.965 179.424 596.027 179.61 L 605.613 210.419 C 605.893 211.315 606.688 211.763 607.997 211.763 C 609.307 211.763 610.133 211.315 610.476 210.419 L 619.968 179.61 C 619.968 179.548 619.976 179.486 619.991 179.424 C 620.007 179.363 620.015 179.316 620.015 179.285 C 620.015 178.853 619.758 178.467 619.243 178.127 C 618.729 177.787 618.176 177.617 617.583 177.617 C 616.866 177.617 616.399 177.911 616.181 178.498 L 607.997 206.018 L 599.768 178.498 C 599.58 177.911 599.097 177.617 598.318 177.617 C 597.757 177.617 597.219 177.772 596.705 178.081 Z M 620.383 190.914 L 620.383 202.96 C 620.383 205.338 621.295 207.415 623.119 209.191 C 624.943 210.967 627.117 211.855 629.642 211.855 C 632.136 211.855 634.295 210.967 636.118 209.191 C 637.942 207.415 638.854 205.338 638.854 202.96 L 638.854 190.867 C 638.854 190.497 638.675 190.18 638.316 189.917 C 637.958 189.655 637.498 189.524 636.937 189.524 C 636.407 189.524 635.947 189.663 635.557 189.941 C 635.168 190.219 634.973 190.527 634.973 190.867 L 634.973 202.96 C 634.973 204.38 634.443 205.639 633.383 206.736 C 632.323 207.832 631.076 208.38 629.642 208.38 C 628.177 208.38 626.914 207.824 625.854 206.712 C 624.794 205.6 624.264 204.35 624.264 202.96 L 624.264 190.914 C 624.264 190.574 624.07 190.258 623.68 189.964 C 623.29 189.671 622.846 189.524 622.347 189.524 C 621.817 189.524 621.358 189.663 620.968 189.941 C 620.578 190.219 620.383 190.544 620.383 190.914 Z M 642.027 198.002 L 642.027 202.867 C 642.027 205.554 642.993 207.724 644.926 209.376 C 646.859 211.029 649.353 211.855 652.408 211.855 C 654.496 211.855 656.25 211.484 657.668 210.743 C 659.087 210.002 659.796 209.276 659.796 208.566 C 659.796 208.164 659.64 207.77 659.328 207.384 C 659.017 206.998 658.643 206.805 658.206 206.805 C 657.926 206.805 657.552 206.952 657.084 207.245 C 656.616 207.539 656.001 207.84 655.237 208.149 C 654.473 208.458 653.577 208.612 652.548 208.612 C 650.584 208.612 648.987 208.102 647.755 207.083 C 646.524 206.064 645.908 204.705 645.908 203.006 L 645.908 201.616 L 656.149 201.616 C 656.804 201.616 657.326 201.585 657.715 201.524 C 658.105 201.462 658.526 201.315 658.978 201.083 C 659.43 200.852 659.765 200.466 659.983 199.925 C 660.202 199.385 660.311 198.666 660.311 197.771 C 660.311 195.331 659.422 193.3 657.645 191.678 C 655.868 190.057 653.764 189.246 651.333 189.246 C 648.776 189.246 646.586 190.111 644.763 191.84 C 642.939 193.57 642.027 195.624 642.027 198.002 Z M 654.559 199.022 L 645.908 199.022 L 645.908 197.354 C 645.908 195.933 646.438 194.736 647.498 193.763 C 648.558 192.79 649.821 192.304 651.286 192.304 C 652.782 192.304 654.045 192.829 655.073 193.879 C 656.102 194.929 656.617 196.149 656.617 197.539 C 656.617 198.126 656.476 198.52 656.196 198.72 C 655.915 198.921 655.37 199.022 654.559 199.022 Z M 662.97 207.616 C 662.503 208.094 662.269 208.674 662.269 209.353 C 662.269 210.002 662.503 210.565 662.97 211.044 C 663.438 211.523 664.015 211.762 664.7 211.762 C 665.355 211.762 665.916 211.523 666.384 211.044 C 666.851 210.565 667.085 210.002 667.085 209.353 C 667.085 208.674 666.851 208.094 666.384 207.616 C 665.916 207.137 665.355 206.898 664.7 206.898 C 664.015 206.898 663.438 207.137 662.97 207.616 Z M 666.191 219.198 C 665.879 219.523 665.723 219.932 665.723 220.426 C 665.723 221.538 666.394 222.094 667.734 222.094 C 669.885 222.094 671.49 221.306 672.55 219.731 C 673.61 218.156 674.14 216.025 674.14 213.338 L 674.14 190.867 C 674.14 190.466 673.953 190.142 673.579 189.895 C 673.205 189.647 672.737 189.524 672.176 189.524 C 671.615 189.524 671.155 189.647 670.797 189.895 C 670.438 190.142 670.259 190.466 670.259 190.867 L 670.259 213.338 C 670.259 215.129 670.072 216.473 669.698 217.368 C 669.324 218.264 668.529 218.712 667.313 218.712 C 666.877 218.712 666.503 218.874 666.191 219.198 Z M 670.446 179.748 C 669.978 180.181 669.745 180.69 669.745 181.277 C 669.745 181.864 669.986 182.381 670.469 182.829 C 670.953 183.277 671.522 183.501 672.176 183.501 C 672.831 183.501 673.392 183.277 673.86 182.829 C 674.327 182.381 674.561 181.864 674.561 181.277 C 674.561 180.69 674.327 180.181 673.86 179.748 C 673.392 179.316 672.831 179.1 672.176 179.1 C 671.49 179.1 670.914 179.316 670.446 179.748 Z M 677.431 207.152 C 677.166 207.538 677.033 207.932 677.033 208.333 C 677.033 209.167 677.782 209.963 679.278 210.719 C 680.774 211.476 682.582 211.855 684.702 211.855 C 687.165 211.855 689.082 211.299 690.454 210.187 C 691.825 209.075 692.511 207.561 692.511 205.646 C 692.511 204.102 692.121 202.843 691.342 201.87 C 690.563 200.898 689.612 200.21 688.49 199.809 C 687.367 199.407 686.237 199.068 685.099 198.79 C 683.962 198.512 683.003 198.125 682.224 197.631 C 681.444 197.137 681.055 196.458 681.055 195.593 C 681.055 194.759 681.405 194.01 682.107 193.346 C 682.808 192.682 683.876 192.35 685.31 192.35 C 686.37 192.35 687.437 192.574 688.513 193.021 C 689.588 193.469 690.188 193.693 690.313 193.693 C 690.75 193.693 691.116 193.462 691.412 192.998 C 691.708 192.535 691.856 192.118 691.856 191.747 C 691.856 191.099 691.171 190.52 689.799 190.01 C 688.427 189.5 686.915 189.246 685.263 189.246 C 682.676 189.246 680.751 189.887 679.488 191.168 C 678.226 192.45 677.594 193.971 677.594 195.732 C 677.594 197.153 677.984 198.295 678.763 199.16 C 679.543 200.025 680.494 200.643 681.616 201.013 C 682.738 201.384 683.86 201.724 684.983 202.033 C 686.105 202.342 687.056 202.797 687.835 203.399 C 688.614 204.002 689.004 204.812 689.004 205.832 C 689.004 206.666 688.653 207.361 687.952 207.917 C 687.251 208.473 686.121 208.75 684.562 208.75 C 683.377 208.75 682.349 208.573 681.476 208.218 C 680.603 207.863 679.933 207.5 679.465 207.129 C 678.997 206.758 678.639 206.573 678.39 206.573 C 678.015 206.573 677.696 206.766 677.431 207.152 Z" fill="white"></path>
</svg>