<svg width="28" height="28" viewBox="0 0 28 28" fill="none" xmlns="http://www.w3.org/2000/svg">
<path d="M20.5886 11.4187H16.7602C16.6903 10.8673 16.5111 10.3702 16.2226 9.92725C15.8031 9.33066 15.1519 9.03236 14.2691 9.03236C13.0105 9.03236 12.1495 9.67867 11.6863 10.9713C11.4415 11.6583 11.3192 12.5713 11.3192 13.7102C11.3192 14.7949 11.4415 15.6672 11.6863 16.3271C12.132 17.5564 12.9711 18.1711 14.2036 18.1711C15.0776 18.1711 15.6982 17.9271 16.0653 17.4389C16.4324 16.9508 16.6553 16.3181 16.734 15.5407H20.5492C20.4618 16.7158 20.051 17.8276 19.3168 18.8762C18.1456 20.5665 16.4106 21.4117 14.1118 21.4117C11.813 21.4117 10.1217 20.7066 9.03786 19.2965C7.95403 17.8864 7.41211 16.0559 7.41211 13.8051C7.41211 11.2651 8.01084 9.28998 9.20831 7.87985C10.4058 6.46972 12.0577 5.76465 14.1642 5.76465C15.9561 5.76465 17.4201 6.18046 18.5564 7.01207C19.7014 7.84369 20.3788 9.31258 20.5886 11.4187Z" fill="#343434"/>
<circle cx="14" cy="14" r="12.7647" stroke="#343434" stroke-width="2.47059"/>
</svg>
